<svg xmlns:xlink="http://www.w3.org/1999/xlink" xmlns="http://www.w3.org/2000/svg" version="1.2" viewBox="0 0 64 105" width="64" height="105">
	<title>mobile-menu-icon-svg</title>
	<style>
		.s0 { opacity: .3;fill: #000000 } 
		.s1 { fill: #ff7300 } 
		.s2 { fill: #ffffff } 
	</style>
	<path id="Union_1" class="s0" d="m7.3 57.8h-0.1v-10.9h49v40.3q-0.1 1.4-0.6 2.7-0.5 1.3-1.2 2.5-0.8 1.2-1.8 2.2-0.9 1-2.1 1.8c-2.1 1.5-1.7 0.9-1.3-0.9 0.7-2.8 1.4-8.7-8.3-13.8-15.5-8.2-33.7-1.1-33.7-23.2q0-0.4 0.1-0.7zm33.6-35c9.7-5.1 9-11 8.3-13.8-0.4-1.8-0.8-2.4 1.3-0.9q1.2 0.8 2.1 1.8 1 1 1.8 2.2 0.7 1.2 1.2 2.5 0.5 1.3 0.6 2.7v29.6h-48.9q-0.1-0.5-0.1-0.9c0-22.1 18.2-15 33.7-23.2z"/>
	<path id="Path_1" class="s1" d="m58.2 90.1q-0.1 1.4-0.6 2.7-0.5 1.3-1.2 2.5-0.7 1.2-1.7 2.3-0.9 1-2.1 1.8c-5.3 3.9 6-6.4-9.4-14.9-15.4-8.4-33.4-0.9-32.9-24.3h47.9z"/>
	<path id="Path_2" class="s1" d="m58.2 44.3h-47.9c-0.5-23.4 17.5-15.9 32.9-24.3 15.4-8.5 4.1-18.8 9.4-14.9q1.2 0.8 2.1 1.8 1 1.1 1.7 2.3 0.7 1.2 1.2 2.5 0.5 1.3 0.6 2.7z"/>
	<path id="Rectangle_2" class="s1" d="m58.2 43.9v17h-48v-17z"/>
	<g id="Layer">
		<path id="Rectangle_3-2" class="s2" d="m25.6 43.2c0.6-0.6 1.5-0.7 2.1-0.1l20.1 18.1c0.6 0.6 0.6 1.5 0.1 2.1-0.6 0.6-1.5 0.7-2.1 0.1l-20.1-18.1c-0.6-0.6-0.6-1.5-0.1-2.1z"/>
		<g id="Layer">
			<path id="Rectangle_3-3" class="s2" d="m25.6 43.2c0.6-0.6 1.5-0.7 2.1-0.1l20.1 18.1c0.6 0.5 0.6 1.5 0.1 2.1-0.6 0.6-1.5 0.7-2.1 0.1l-20.1-18.1c-0.6-0.6-0.6-1.5-0.1-2.1z"/>
		</g>
	</g>
	<g id="Layer">
		<path id="Rectangle_491-2" class="s2" d="m26.2 63.9c-0.6-0.5-0.6-1.5 0-2.1l18.9-19.2c0.6-0.6 1.6-0.6 2.2 0 0.6 0.5 0.6 1.5 0 2.1l-18.9 19.2c-0.6 0.6-1.6 0.6-2.2 0z"/>
		<g id="Layer">
			<path id="Rectangle_491-3" class="s2" d="m26.2 63.9c-0.6-0.5-0.6-1.5 0-2.1l18.9-19.2c0.6-0.6 1.6-0.6 2.2 0 0.6 0.5 0.6 1.5 0 2.1l-18.9 19.2c-0.6 0.6-1.6 0.6-2.2 0z"/>
		</g>
	</g>
</svg>